<mxfile host="app.diagrams.net" modified="2021-05-06T15:10:01.020Z" agent="5.0 (X11; CrOS aarch64 13816.64.0) AppleWebKit/537.36 (KHTML, like Gecko) Chrome/90.0.4430.100 Safari/537.36" etag="JWNVcXr7I-jZfwd-8Bx8" version="14.6.10" type="github">
  <diagram id="cwuVCM6SGDI1VePdqwwk" name="Page-1">
    <mxGraphModel dx="582" dy="415" grid="1" gridSize="10" guides="1" tooltips="1" connect="1" arrows="1" fold="1" page="1" pageScale="1" pageWidth="850" pageHeight="1100" math="0" shadow="0">
      <root>
        <mxCell id="0" />
        <mxCell id="1" parent="0" />
        <mxCell id="ahhh7KqVjNTZdT77nNfx-8" style="edgeStyle=orthogonalEdgeStyle;rounded=0;orthogonalLoop=1;jettySize=auto;html=1;exitX=0.5;exitY=1;exitDx=0;exitDy=0;entryX=0.5;entryY=0;entryDx=0;entryDy=0;" edge="1" parent="1" source="ahhh7KqVjNTZdT77nNfx-1" target="ahhh7KqVjNTZdT77nNfx-3">
          <mxGeometry relative="1" as="geometry" />
        </mxCell>
        <mxCell id="ahhh7KqVjNTZdT77nNfx-9" style="edgeStyle=orthogonalEdgeStyle;rounded=0;orthogonalLoop=1;jettySize=auto;html=1;exitX=0.5;exitY=1;exitDx=0;exitDy=0;entryX=0.5;entryY=0;entryDx=0;entryDy=0;" edge="1" parent="1" source="ahhh7KqVjNTZdT77nNfx-1" target="ahhh7KqVjNTZdT77nNfx-2">
          <mxGeometry relative="1" as="geometry" />
        </mxCell>
        <mxCell id="ahhh7KqVjNTZdT77nNfx-10" style="edgeStyle=orthogonalEdgeStyle;rounded=0;orthogonalLoop=1;jettySize=auto;html=1;exitX=0.5;exitY=1;exitDx=0;exitDy=0;" edge="1" parent="1" source="ahhh7KqVjNTZdT77nNfx-1" target="ahhh7KqVjNTZdT77nNfx-4">
          <mxGeometry relative="1" as="geometry" />
        </mxCell>
        <mxCell id="ahhh7KqVjNTZdT77nNfx-1" value="Negative, Positive, or Zero" style="rounded=0;whiteSpace=wrap;html=1;" vertex="1" parent="1">
          <mxGeometry x="240" y="190" width="120" height="60" as="geometry" />
        </mxCell>
        <mxCell id="ahhh7KqVjNTZdT77nNfx-11" style="edgeStyle=orthogonalEdgeStyle;rounded=0;orthogonalLoop=1;jettySize=auto;html=1;exitX=0.5;exitY=1;exitDx=0;exitDy=0;entryX=0.5;entryY=0;entryDx=0;entryDy=0;" edge="1" parent="1" source="ahhh7KqVjNTZdT77nNfx-2" target="ahhh7KqVjNTZdT77nNfx-5">
          <mxGeometry relative="1" as="geometry" />
        </mxCell>
        <mxCell id="ahhh7KqVjNTZdT77nNfx-2" value="Input" style="rounded=0;whiteSpace=wrap;html=1;" vertex="1" parent="1">
          <mxGeometry x="70" y="290" width="120" height="60" as="geometry" />
        </mxCell>
        <mxCell id="ahhh7KqVjNTZdT77nNfx-12" style="edgeStyle=orthogonalEdgeStyle;rounded=0;orthogonalLoop=1;jettySize=auto;html=1;exitX=0.5;exitY=1;exitDx=0;exitDy=0;entryX=0.5;entryY=0;entryDx=0;entryDy=0;" edge="1" parent="1" source="ahhh7KqVjNTZdT77nNfx-3" target="ahhh7KqVjNTZdT77nNfx-6">
          <mxGeometry relative="1" as="geometry" />
        </mxCell>
        <mxCell id="ahhh7KqVjNTZdT77nNfx-3" value="Process" style="rounded=0;whiteSpace=wrap;html=1;" vertex="1" parent="1">
          <mxGeometry x="240" y="290" width="120" height="60" as="geometry" />
        </mxCell>
        <mxCell id="ahhh7KqVjNTZdT77nNfx-13" style="edgeStyle=orthogonalEdgeStyle;rounded=0;orthogonalLoop=1;jettySize=auto;html=1;exitX=0.5;exitY=1;exitDx=0;exitDy=0;entryX=0.5;entryY=0;entryDx=0;entryDy=0;" edge="1" parent="1" source="ahhh7KqVjNTZdT77nNfx-4" target="ahhh7KqVjNTZdT77nNfx-7">
          <mxGeometry relative="1" as="geometry" />
        </mxCell>
        <mxCell id="ahhh7KqVjNTZdT77nNfx-4" value="Output" style="rounded=0;whiteSpace=wrap;html=1;" vertex="1" parent="1">
          <mxGeometry x="410" y="290" width="120" height="60" as="geometry" />
        </mxCell>
        <mxCell id="ahhh7KqVjNTZdT77nNfx-5" value="Get Number" style="rounded=0;whiteSpace=wrap;html=1;" vertex="1" parent="1">
          <mxGeometry x="70" y="390" width="120" height="60" as="geometry" />
        </mxCell>
        <mxCell id="ahhh7KqVjNTZdT77nNfx-6" value="Check if number is positive, negative, or zero" style="rounded=0;whiteSpace=wrap;html=1;" vertex="1" parent="1">
          <mxGeometry x="240" y="390" width="120" height="60" as="geometry" />
        </mxCell>
        <mxCell id="ahhh7KqVjNTZdT77nNfx-7" value="Show if positive, negative, or zero" style="rounded=0;whiteSpace=wrap;html=1;" vertex="1" parent="1">
          <mxGeometry x="410" y="390" width="120" height="60" as="geometry" />
        </mxCell>
      </root>
    </mxGraphModel>
  </diagram>
</mxfile>
